<?xml version="1.0" encoding="UTF-8" standalone="no"?>
<!-- Generator: Adobe Illustrator 15.0.1, SVG Export Plug-In . SVG Version: 6.00 Build 0)  -->

<svg
   xmlns:dc="http://purl.org/dc/elements/1.1/"
   xmlns:cc="http://creativecommons.org/ns#"
   xmlns:rdf="http://www.w3.org/1999/02/22-rdf-syntax-ns#"
   xmlns:svg="http://www.w3.org/2000/svg"
   xmlns="http://www.w3.org/2000/svg"
   xmlns:sodipodi="http://sodipodi.sourceforge.net/DTD/sodipodi-0.dtd"
   xmlns:inkscape="http://www.inkscape.org/namespaces/inkscape"
   version="1.1"
   id="svg2"
   inkscape:version="0.92.2 5c3e80d, 2017-08-06"
   sodipodi:version="0.32"
   sodipodi:docname="ClosedAppleButton.svg"
   inkscape:output_extension="org.inkscape.output.svg.inkscape"
   x="0px"
   y="0px"
   width="239.77953"
   height="239.77953"
   viewBox="0 0 239.77953 239.77953"
   enable-background="new 0 0 256 256"
   xml:space="preserve"
   inkscape:export-filename="/Users/devon/code/prodos_website/ProDOS-8.github.io/pix/OpenAppleButton.png"
   inkscape:export-xdpi="150.13792"
   inkscape:export-ydpi="150.13792"><metadata
     id="metadata943"><rdf:RDF><cc:Work
         rdf:about=""><dc:format>image/svg+xml</dc:format><dc:type
           rdf:resource="http://purl.org/dc/dcmitype/StillImage" /><dc:title></dc:title></cc:Work></rdf:RDF></metadata><defs
     id="defs941" /><sodipodi:namedview
     pagecolor="#ffffff"
     bordercolor="#666666"
     borderopacity="1"
     objecttolerance="10"
     gridtolerance="10"
     guidetolerance="10"
     inkscape:pageopacity="0"
     inkscape:pageshadow="2"
     inkscape:window-width="1440"
     inkscape:window-height="855"
     id="namedview939"
     showgrid="false"
     fit-margin-top="0"
     fit-margin-left="0"
     fit-margin-right="0"
     fit-margin-bottom="0"
     inkscape:zoom="2.5078125"
     inkscape:cx="120.28852"
     inkscape:cy="119.88976"
     inkscape:window-x="0"
     inkscape:window-y="1"
     inkscape:window-maximized="1"
     inkscape:current-layer="svg2" /><path
     id="rect1942"
     inkscape:export-filename="C:\Documents and Settings\Molumen\Desktop\path3511111.png"
     inkscape:export-ydpi="7.7063322"
     inkscape:export-xdpi="7.7063322"
     d="M 202.40276,1.8897638 H 37.376764 c -19.599,0 -35.4870002,15.8880002 -35.4870002,35.4870002 V 202.40176 c 0,19.599 15.8880002,35.488 35.4870002,35.488 H 202.40176 c 19.599,0 35.488,-15.889 35.488,-35.487 V 37.376764 c 0,-19.599 -15.889,-35.4870002 -35.487,-35.4870002 z"
     style="fill:#e5e5cf;fill-opacity:1;stroke:#292929;stroke-width:3.77952766;stroke-miterlimit:4;stroke-dasharray:none;stroke-opacity:1"
     inkscape:connector-curvature="0" /><linearGradient
     id="path1950_1_"
     gradientUnits="userSpaceOnUse"
     x1="-1161.3848"
     y1="-114.3838"
     x2="-1213.0811"
     y2="-265.07211"
     gradientTransform="matrix(-0.5915,0,0,-0.5915,-616.701,-91.6719)"><stop
       offset="0"
       style="stop-color:#FFFFFF"
       id="stop929" /><stop
       offset="1"
       style="stop-color:#FFFFFF;stop-opacity:0"
       id="stop931" /></linearGradient><g
     id="g3645"
     transform="matrix(0.6516767,0,0,0.6570253,412.2141,350.2377)"
     style="fill:#292929;fill-opacity:1;stroke:#292929;stroke-width:5.77604246;stroke-linecap:square;stroke-linejoin:miter;stroke-miterlimit:1;stroke-dasharray:none;stroke-opacity:1"><path
       id="path3975"
       sodipodi:nodetypes="cccccccccccccccccccccccccccccccccccccccccc"
       d="m -346.564,-295.437 c 1.013,-3.917 -0.003,-5.3 -1.701,-5.828 -8.943,-5.519 -14.906,-11.715 -21.224,-20.88 -5.088,-10.644 -7.807,-13.963 -7.442,-28.965 -0.342,-7.23 0.554,-14.461 3.614,-21.691 3.606,-7.418 6.902,-13.662 13.694,-17.988 l 6.507,-5.784 c 1.573,-1.186 1.57,-3.543 0.767,-5.149 -5.672,-5.862 -10.256,-11.88 -20.455,-17.097 -4.133,-2.392 -10.37,-4.244 -18.588,-4.594 -5.802,0.002 -11.431,-0.168 -18.543,1.146 -9.087,1.48 -17.413,5.637 -25.562,9.699 -5.206,1.275 -9.934,0.63 -14.461,-0.811 l -15.184,-6.419 c -5.285,-1.946 -11.471,-2.99 -18.799,-2.892 -7.234,-0.022 -14.404,0.282 -20.968,3.616 -5.204,2.509 -9.937,5.488 -14.461,8.677 -5.362,5.002 -10.451,10.276 -14.461,16.629 -3.088,3.99 -5.276,10.426 -7.698,16.418 -2.21,5.997 -3.223,10.436 -4.126,15.863 -1.582,10.492 -1.394,16.862 -1.023,24.837 0.781,13.654 2.735,18.621 4.17,26.753 5.246,20.96 17.425,40.057 30.368,57.119 4.582,5.062 6.706,8.897 15.439,15.14 5.857,3.659 6.722,4.371 9.866,5.829 2.895,0.719 5.888,1.341 10.123,0.722 10.605,-2.244 19.848,-8.263 30.367,-10.846 3.857,-0.505 7.713,-0.892 11.569,-0.722 12.631,-0.21 23.209,11.052 35.428,10.546 4.786,-0.658 9.306,-2.348 12.759,-4.337 13.691,-10.027 26.645,-25.515 33.684,-41.169 2.536,-5.521 4.48,-11.63 6.341,-17.822 1.013,-3.917 -1.861,6.192 0,0 z"
       style="fill:#292929;fill-opacity:1;stroke:#292929;stroke-width:5.77604246;stroke-linecap:square;stroke-linejoin:miter;stroke-miterlimit:1;stroke-dasharray:none;stroke-opacity:1"
       inkscape:connector-curvature="0" /><path
       id="path4486"
       sodipodi:nodetypes="cccccccccccccccccccc"
       d="m -446.726,-426.9 c 0.076,2.89 1.896,2.027 2.915,2.403 3.833,0.435 5.714,-0.595 8.315,-1.084 5.032,-1.443 6.973,-2.499 9.399,-3.616 2.772,-1.648 5.543,-2.837 8.315,-5.422 9.824,-7.139 19.283,-20.922 21.329,-32.898 0.641,-3.054 1.451,-6.023 1.448,-9.4 0.202,-1.649 -0.262,-2.631 -0.724,-3.615 -1.827,-1.078 -2.768,-1.043 -4.893,-0.891 -2.491,0.01 -5.676,0.393 -9.207,1.975 -11.784,5.416 -24.91,15.56 -30.155,27.709 -2.952,5.641 -5.611,12.349 -6.742,18.693 -0.357,2.168 -0.264,3.674 0,6.146 0.076,2.89 -0.264,-2.472 0,0 z"
       style="fill:#292929;fill-opacity:1;stroke:#292929;stroke-width:5.77604246;stroke-linecap:square;stroke-linejoin:miter;stroke-miterlimit:1;stroke-dasharray:none;stroke-opacity:1"
       inkscape:connector-curvature="0" /></g></svg>